<svg xmlns="http://www.w3.org/2000/svg" width="24" height="24" viewBox="0 0 24 24">
  <style>
    path { fill: #1f2321; }
    @media (prefers-color-scheme: dark) {
      path { fill: white; opacity: 0.5; }
    }
  </style>
  <path d="M12,0A12,12,0,1,0,24,12,12,12,0,0,0,12,0Zm6.013,6.166a2.26,2.26,0,0,0-.859.667,4.5,4.5,0,0,0-.749,1.408l-3.674,9.942q-.195-.017-.612-.017-.4,0-.587.017L7.085,7.28a2.108,2.108,0,0,0-.516-.838.966.966,0,0,0-.582-.276V5.817q1.047.051,2.654.051,1.776,0,2.645-.051v.349a2.677,2.677,0,0,0-.941.157.49.49,0,0,0-.284.489,2.5,2.5,0,0,0,.213.817l3.07,7.8,2.143-5.774a6.929,6.929,0,0,0,.484-2.126A1.271,1.271,0,0,0,15.6,6.51a1.728,1.728,0,0,0-1.092-.344V5.817q1.173.051,2.177.051.8,0,1.327-.051Z"/>
</svg>